
<svg width="60px" height="57px" viewBox="0 0 60 57" version="1.1" xmlns="http://www.w3.org/2000/svg" xmlns:xlink="http://www.w3.org/1999/xlink">
    <defs>
        <linearGradient x1="50%" y1="4.00559971%" x2="50%" y2="100%" id="linearGradient-1">
            <stop stop-color="#EFD6AC" offset="0%"></stop>
            <stop stop-color="#432534" offset="100%"></stop>
        </linearGradient>
    </defs>
    <g id="Page-1" stroke="none" stroke-width="1" fill="none" fill-rule="evenodd">
        <g id="Desktop-HD" transform="translate(-690.000000, -949.000000)" fill="url(#linearGradient-1)" fill-rule="nonzero">
            <g id="angle-double-down-solid" transform="translate(690.000000, 949.000000)">
                <path d="M26.8134958,28.5366415 L1.32146204,9.08796575 C-0.440487348,7.74371905 -0.440487348,5.57004353 1.32146204,4.24009732 L5.55763824,1.00818503 C7.31958763,-0.336061676 10.1686973,-0.336061676 11.9119025,1.00818503 L29.9812559,14.793864 L48.0506092,1.00818503 C49.8125586,-0.336061676 52.6616682,-0.336061676 54.4048735,1.00818503 L58.678538,4.22579682 C60.4404873,5.57004353 60.4404873,7.74371905 58.678538,9.07366526 L33.1865042,28.522341 C31.4245548,29.8808882 28.5754452,29.8808882 26.8134958,28.5366415 Z M33.1865042,55.9935954 L58.678538,36.5449197 C60.4404873,35.200673 60.4404873,33.0269975 58.678538,31.6970513 L54.4423618,28.465139 C52.6804124,27.1208923 49.8313027,27.1208923 48.0880975,28.465139 L30,42.2365175 L11.9306467,28.4508385 C10.1686973,27.1065918 7.31958763,27.1065918 5.57638238,28.4508385 L1.32146204,31.6827508 C-0.440487348,33.0269975 -0.440487348,35.200673 1.32146204,36.5306192 L26.8134958,55.9792949 C28.5754452,57.3378421 31.4245548,57.3378421 33.1865042,55.9935954 Z" id="Shape"></path>
            </g>
        </g>
    </g>
</svg>
