
<svg width="75px" height="75px" viewBox="0 0 75 75" version="1.1" xmlns="http://www.w3.org/2000/svg" xmlns:xlink="http://www.w3.org/1999/xlink">
    <defs>
        <linearGradient x1="0%" y1="-32.1335355%" x2="50%" y2="100%" id="linearGradient-1">
            <stop stop-color="#EFD6AC" offset="0%"></stop>
            <stop stop-color="#432534" offset="100%"></stop>
        </linearGradient>
    </defs>
    <g id="Page-1" stroke="none" stroke-width="1" fill="none" fill-rule="evenodd">
        <g id="Desktop-HD" transform="translate(-49.000000, -39.000000)" fill="url(#linearGradient-1)" fill-rule="nonzero">
            <g id="fill-solid" transform="translate(49.000000, 39.000000)">
                <path d="M73.6277942,31.7952774 L43.2041573,1.37253179 C42.288621,0.457022324 41.0889022,0 39.8891835,0 C38.6894647,0 37.489746,0.457022324 36.5756746,1.37253179 L24.6253626,13.3224937 L12.0012158,0.698716822 C11.0871444,-0.216792641 9.60177834,-0.216792641 8.68770691,0.698716822 L5.37419799,4.01066385 C4.46012656,4.92617332 4.46012656,6.41003105 5.37419799,7.32554052 L17.9998096,19.9493174 L4.11881464,33.8299057 C-1.37293821,39.3214976 -1.37293821,48.2231792 4.11881464,53.7147712 L21.2854862,70.8809398 C24.032095,73.6260034 27.6297864,75 31.2274778,75 C34.826634,75 38.4243254,73.6274682 41.1709343,70.8809398 L73.6277942,38.4250308 C75.4574019,36.5940118 75.4574019,33.6262964 73.6277942,31.7952774 Z M56.6032139,42.1910705 L9.65744294,42.1910705 C9.85666364,41.6285815 10.1803973,41.022148 10.7458325,40.4581942 L12.6721208,38.5319623 L24.6268274,26.5776059 L33.2123605,35.1614226 C35.0419682,36.9909767 38.0097706,36.9909767 39.8393783,35.1614226 C41.668986,33.3318685 41.668986,30.364153 39.8393783,28.5345989 L31.2538453,19.9507822 L39.8891835,11.315697 L63.6858026,35.1101541 L56.6032139,42.1910705 Z" id="Shape"></path>
            </g>
        </g>
    </g>
</svg>
